<?xml version="1.0" encoding="utf-8"?>
<!-- Generator: Adobe Illustrator 18.1.1, SVG Export Plug-In . SVG Version: 6.00 Build 0)  -->
<!DOCTYPE svg PUBLIC "-//W3C//DTD SVG 1.1 Tiny//EN" "http://www.w3.org/Graphics/SVG/1.1/DTD/svg11-tiny.dtd">
<svg version="1.1" baseProfile="tiny" id="Layer_1" xmlns="http://www.w3.org/2000/svg" xmlns:xlink="http://www.w3.org/1999/xlink"
	 x="0px" y="0px" viewBox="0 0 585 250" xml:space="preserve">
<path d="M436.5,38.7c-6.3-1.1-13-1.6-19-3.3c-3.8-1.1-7.9-3.7-11.6-6.3c-7.3-5.4-14.6-9.2-23.1-12.7c-3.9-1.6-9.5-4.1-14.3-3.6
	c-3.4,0.4-7,3.9-10.2,6.1c-7,4.8-12.9,8.5-19.5,12.9c-3.1,2.1-7.7,4.7-9.1,7.4c-0.8,1.6-0.8,4.3-1.7,6.1c-2.1,4-6.3,8.4-10.4,8.2
	c-4.9-0.2-10.4-8.9-8.5-15.4c1-3.5,6.6-5.3,10.4-7.4c12-6.7,22.4-13.5,32.5-21.2c6.5-4.9,15.2-8.6,26.7-9.1
	c11.1-0.4,26.2-0.5,36.6,0c8.6,0.4,15.9,1,23.4,2.5c43,8.6,86.6,16.4,127.2,28c4.3,1.3,17,3.6,18.1,7.7c0.7,2.6-1.4,8.4-2.2,12.6
	c-1,5.1-1.7,9.6-2.5,13.2c-0.7,3.4-3.8,6.9-5.5,10.4c-5,10.5-8.1,22.5-12.4,33.8c-5.6,15-11.9,28.6-20.9,41
	c-8.6,11.8-20.2,19.6-35.2,26.7c-6.6,3.1-14.3,6.4-22.5,8.2c-8,1.8-19.2,3.7-28.3,1.6c-13.1-2.9-18.1-15-22.8-26.7
	c-5-12.4-7.9-23.8-9.6-40.1c-15.8,1-19.2,11.8-24.5,23.1c-2.3,4.8-4.7,9.5-6.9,14c-9.1,18.3-18.8,38-32.2,51.4
	c-7.1,7.1-15.2,11.9-25.6,16.2c-19.6,8.1-40.3,15.1-63.2,20.4c-21.2,4.8-52.5,9.7-72-0.5c-12.6-6.5-18.3-23.2-23.7-36.9
	c-2.7-6.8-4.9-14.5-7.4-22.8c-2.2-7.4-4.2-16.3-9.1-21.2c-6.2-6.1-16.3-8.3-19-17.6c-4.8-1.8-9.2-4.8-13.5-7.7
	C99,120.6,73.5,103.8,47.2,87.1c-4.3-2.7-9.8-5.6-12.6-8.8c-4-4.4-6.4-12.2-9.8-18.2c-1.6-2.8-3.5-5.4-5.2-8
	c-1.6-2.4-3.2-5.9-6.3-6.3c-1.9,2.2-1,6-1.1,9.1c-0.1,3.2-0.5,6.9-0.3,10.7c0.2,3.6,1.7,6.2,1.6,9.1c-0.1,3-1.7,6.1-4.9,6.1
	c-4.6-0.1-5-5.8-6.1-9.9c-1.2-4.8-2.8-9.2-2.4-13.3c0.3-3.1,2-7.2,2.8-12.1c1.4-9.4,0.7-18.1,8.5-20.1c4.4-1.1,10.3,2.3,14.8,3.9
	c4.6,1.6,9.4,2.5,13.8,4.1c5,1.9,10,5.1,14.8,8C69.6,50.1,82,59.7,96.3,68.6c19.2,12,38.5,23.3,54.7,36.8
	c43.7-12.8,98.5-21,152.3-25.3c24.6-2,49-1,72,2.2c33.1,4.6,59.2-9.3,81.6-18.7c12-5.1,24-9.7,36.3-15.1
	C473.8,45.1,455.6,42,436.5,38.7z M551.2,65.1c-10.8-2.3-21.9-4.3-32.2-6.3c-0.3-0.1-0.7-0.4-1.1-0.3c-6.7,2.3-13.4,3.6-19.8,6.1
	c-12,4.5-23.6,10.4-33.8,17.9c-5.1,3.7-10.7,7.8-13.5,12.1c-9.5,14.6-7.1,42.4-2.7,59.7c1.6,6.3,2.4,10.5,5.2,15.7
	c17.8,7.6,40.5-1.1,52.2-9.9c9-6.7,15.7-16.2,21.2-25.6C538.5,113.9,546.1,89.8,551.2,65.1z M379.9,102.4c-36-11.4-87.6-4.8-125,2.7
	c-26.3,5.3-55.7,11.3-64.3,33.8c-4.7,12.3-5.9,30-4.1,46.5c1.7,15.3,6.3,28.8,11.8,38.8c17.3,15.9,59,9.3,83.2,2.2
	c14.8-4.4,24.2-8.2,34.4-12.9c11.6-5.4,27.3-11.4,31.1-24.2c1.1-3.5,0.7-7.3,1.1-10.7c2.9-23,11.4-43.8,25.3-56.6
	c2.8-2.6,6.7-4,8-7.4C382.8,110.3,381.4,106.1,379.9,102.4z"/>
</svg>
